<svg xmlns="http://www.w3.org/2000/svg" viewBox="0 0 64 64" width="64" height="64">
  <defs>
    <color id="beer-gold" value="#FBBF24" /> <color id="beer-foam" value="#FFFBEB" /> <color id="wood-dark" value="#78350F" /> </defs>
  
  <circle cx="32" cy="32" r="30" fill="#78350F" /> <circle cx="32" cy="32" r="28" fill="#FFFBEB" /> <g stroke="#78350F" stroke-width="1">
    <path d="M32,32 L32,4 A28,28 0 0,1 56.25,18 Z" fill="#FBBF24" />
    <path d="M32,32 L56.25,46 A28,28 0 0,1 32,60 Z" fill="#FBBF24" />
    <path d="M32,32 L7.75,46 A28,28 0 0,1 7.75,18 Z" fill="#FBBF24" />
    
    <line x1="32" y1="32" x2="56.25" y2="18" />
    <line x1="32" y1="32" x2="32" y2="60" />
    <line x1="32" y1="32" x2="7.75" y2="46" />
  </g>

  <circle cx="32" cy="32" r="6" fill="#78350F" stroke="#FBBF24" stroke-width="2"/>
  
  <path d="M32,2 L35,7 L29,7 Z" fill="#78350F" />
</svg>